<svg width="32" height="32" viewBox="0 0 32 32" fill="none" xmlns="http://www.w3.org/2000/svg">
<rect width="32" height="32" rx="2" fill="#FF5722"/>
<path d="M26 14.7197L25.9618 19.3057C25.9618 20.0955 25.8089 20.8344 25.5032 21.5223C25.1975 22.2102 24.7898 22.8089 24.2803 23.3185C23.7707 23.828 23.172 24.2293 22.4841 24.5223C21.7962 24.8153 21.0573 24.9618 20.2675 24.9618H13.7325C12.9427 24.9618 12.2038 24.8153 11.5159 24.5223C10.828 24.2293 10.2229 23.828 9.70064 23.3185C9.17834 22.8089 8.76433 22.2102 8.4586 21.5223C8.15287 20.8344 8 20.0955 8 19.3057V12.6943C8 11.9045 8.15287 11.1656 8.4586 10.4777C8.76433 9.78981 9.17834 9.19108 9.70064 8.68153C10.2229 8.17197 10.828 7.76433 11.5159 7.4586C12.2038 7.15287 12.9427 7 13.7325 7H17.707C18.0637 7.05096 18.4586 7.15924 18.8917 7.32484C19.3248 7.49045 19.7452 7.70701 20.1529 7.97452C20.5605 8.24204 20.9363 8.56051 21.2803 8.92994C21.6242 9.29936 21.8981 9.6879 22.1019 10.0955C22.1529 10.2229 22.2038 10.3248 22.2548 10.4013C22.3057 10.4777 22.3503 10.5796 22.3885 10.707C22.4268 10.8344 22.465 11 22.5032 11.2038C22.5414 11.4076 22.586 11.6752 22.6369 12.0064L22.7707 12.9427L23.0955 13.5732C23.1975 13.6752 23.3694 13.7389 23.6115 13.7643C23.8535 13.7898 24.1019 13.8025 24.3567 13.8025C24.6115 13.8025 24.8535 13.8089 25.0828 13.8217C25.3121 13.8344 25.465 13.879 25.5414 13.9554L25.8089 14.1465L25.9618 14.4522L26 14.7197ZM13.8089 11.6242C13.5032 11.6242 13.242 11.7325 13.0255 11.949C12.8089 12.1656 12.7006 12.4268 12.7006 12.7325C12.7006 13.0127 12.8089 13.2611 13.0255 13.4777C13.242 13.6943 13.5032 13.8025 13.8089 13.8025H16.9427C17.2484 13.8025 17.5096 13.6943 17.7261 13.4777C17.9427 13.2611 18.051 13.0127 18.051 12.7325C18.051 12.4268 17.9427 12.1656 17.7261 11.949C17.5096 11.7325 17.2484 11.6242 16.9427 11.6242H13.8089ZM20.2293 20.2994C20.5096 20.2994 20.758 20.1911 20.9745 19.9745C21.1911 19.758 21.2994 19.5096 21.2994 19.2293C21.2994 18.9236 21.1911 18.6624 20.9745 18.4459C20.758 18.2293 20.5096 18.121 20.2293 18.121H13.8089C13.5032 18.121 13.242 18.2293 13.0255 18.4459C12.8089 18.6624 12.7006 18.9236 12.7006 19.2293C12.7006 19.5096 12.8089 19.758 13.0255 19.9745C13.242 20.1911 13.5032 20.2994 13.8089 20.2994H20.2293Z" fill="white"/>
</svg>
