<svg xmlns="http://www.w3.org/2000/svg" width="32" height="32" viewBox="0 0 32 32"><g transform="translate(16 16)"><g transform="translate(-16 -16)"><rect width="32" height="32" rx="1.766" fill="#cf2e92"/><g transform="translate(7.835 7.859)"><path d="M103.955,99.555a5.944,5.944,0,0,0-1.971.382,4.154,4.154,0,0,0-2.372,2.381,5.969,5.969,0,0,0-.374,1.973c-.038.867-.047,1.143-.042,3.35s.014,2.483.055,3.35a5.957,5.957,0,0,0,.382,1.971,4.154,4.154,0,0,0,2.381,2.372,5.963,5.963,0,0,0,1.973.374c.867.038,1.143.047,3.35.042s2.484-.014,3.351-.055a5.974,5.974,0,0,0,1.971-.382,4.152,4.152,0,0,0,2.372-2.381,5.949,5.949,0,0,0,.374-1.972c.038-.867.047-1.144.043-3.351s-.014-2.483-.055-3.35a5.961,5.961,0,0,0-.382-1.972,4.151,4.151,0,0,0-2.381-2.372,5.944,5.944,0,0,0-1.973-.374c-.867-.038-1.143-.047-3.35-.043s-2.483.014-3.35.055m.095,14.69a4.509,4.509,0,0,1-1.509-.276A2.691,2.691,0,0,1,101,112.429a4.5,4.5,0,0,1-.283-1.509c-.04-.857-.049-1.113-.053-3.283s0-2.426.041-3.283a4.5,4.5,0,0,1,.276-1.509,2.69,2.69,0,0,1,1.539-1.545,4.5,4.5,0,0,1,1.508-.283c.857-.041,1.114-.049,3.283-.053s2.427,0,3.284.041a4.49,4.49,0,0,1,1.509.276,2.691,2.691,0,0,1,1.546,1.54,4.486,4.486,0,0,1,.282,1.508c.041.857.05,1.114.054,3.283s0,2.427-.041,3.284a4.505,4.505,0,0,1-.276,1.51,2.692,2.692,0,0,1-1.54,1.545,4.5,4.5,0,0,1-1.508.282c-.857.04-1.114.05-3.284.053s-2.426,0-3.283-.041m6.625-10.964a.975.975,0,1,0,.973-.977.975.975,0,0,0-.973.977m-7.526,4.352a4.173,4.173,0,1,0,4.164-4.18,4.172,4.172,0,0,0-4.164,4.18m1.464,0a2.709,2.709,0,1,1,2.714,2.7,2.709,2.709,0,0,1-2.714-2.7" transform="translate(-99.195 -99.499)" fill="#fff"/></g></g></g></svg>