<?xml version="1.0" encoding="utf-8"?>
<!-- Generator: Adobe Illustrator 27.5.0, SVG Export Plug-In . SVG Version: 6.00 Build 0)  -->
<svg version="1.1" id="レイヤー_1" xmlns="http://www.w3.org/2000/svg" xmlns:xlink="http://www.w3.org/1999/xlink" x="0px"
	 y="0px" viewBox="0 0 246.2 52.4" style="enable-background:new 0 0 246.2 52.4;" xml:space="preserve">
<style type="text/css">
	.st0{fill-rule:evenodd;clip-rule:evenodd;fill:#7BA02C;stroke:#7BA02C;stroke-width:1.14;}
	.st1{fill:#7BA02C;stroke:#7BA02C;stroke-width:1.14;}
	.st2{fill-rule:evenodd;clip-rule:evenodd;fill:#FCC800;}
	.st3{fill:#7BA02C;stroke:#7BA02C;stroke-width:0.2953;}
</style>
<path class="st0" d="M28.2,0.8c0,0,4.7,5.2,4.2,18.5L32,28.8c0,0-0.2,1.9-0.3,2.5c0,0-0.8,0.2-2,0.6l3,2.9c0,0-1.7-1.2,10.3-6.2
	c0,0,10.5-4.6,13.9-7.6c0,0,3.2-2.5,5.3-5.3c0,0,0.5-0.4-0.1-0.4c0,0-8,1-15.6,5.8c0,0-8.6,5.4-12.6,9.2c0,0,2.1-10.5,2.2-14.7
	c0,0,2.1-10.2-6.9-14.9C29.2,0.9,28,0.4,28.2,0.8L28.2,0.8z"/>
<path class="st1" d="M12.3,41.6c0,2.9-1.2,5.2-3.6,6.9c-2.1,1.5-4.8,2.4-8.1,2.7v-2.6c2.8-0.3,4.9-1,6.5-2.1
	c1.7-1.3,2.6-2.9,2.6-4.9c0-1.4-0.3-2.6-0.9-3.5c-0.6-1-1.6-1.9-2.9-2.9C4,33.9,2.7,32.7,2,31.5c-0.7-1.1-1-2.4-1-3.6
	c0-2.6,0.7-4.6,2.2-6c1.4-1.4,3.4-2.2,5.8-2.2v2.6c-1.8,0.2-3.1,0.7-4,1.6s-1.3,2.2-1.3,4c0,1.2,0.4,2.2,1.1,3.1
	c0.5,0.6,1.6,1.5,3.2,2.7c1.4,1.1,2.5,2.2,3.3,3.4C11.9,38.3,12.3,39.8,12.3,41.6z"/>
<path class="st1" d="M31.2,36.3l-8.9,6.1c0-1.9,0.6-3.5,1.9-4.6c1.3-1.2,2.8-1.7,4.5-1.7C29.5,36,30.3,36.1,31.2,36.3L31.2,36.3z
	 M22.1,36.4c-1.5,1.6-2.2,3.7-2.2,6.1c0,2.1,0.7,4,2,5.6s3.2,2.6,5.6,2.9v-2.3c-2.1-0.3-3.7-1.6-4.7-3.9l8.4-5.7l1.5-2.6
	c-0.8-0.8,1-1.7-0.1-2.1c-1.1-0.4-2.4-0.7-3.8-0.7C25.9,33.7,23.7,34.6,22.1,36.4L22.1,36.4z"/>
<path class="st1" d="M51.5,36.3l-8.9,6.1c0-1.9,0.6-3.5,1.9-4.6c1.3-1.2,2.8-1.7,4.5-1.7C49.8,36,50.6,36.1,51.5,36.3z M42.4,36.4
	C41,38,40.2,40,40.2,42.5c0,2.1,0.7,4,2,5.6s3.2,2.6,5.6,2.9v-2.3c-2.1-0.3-3.7-1.6-4.7-3.9l12.6-8.6c-0.8-0.8-1.7-1.5-2.8-1.9
	s-2.4-0.7-3.8-0.7C46.2,33.7,44,34.6,42.4,36.4L42.4,36.4z"/>
<path class="st1" d="M63.2,46.8c-1.3-1.3-1.9-2.8-1.9-4.5c0-1.8,0.6-3.2,1.9-4.5c1.3-1.3,2.8-1.9,4.6-1.9c1.7,0,3.3,0.6,4.6,1.9
	c1.3,1.3,1.9,2.8,1.9,4.5s-0.6,3.2-1.9,4.5s-2.8,1.9-4.6,1.9C66,48.7,64.4,48.1,63.2,46.8z M61.5,48.4c1.7,1.7,3.8,2.6,6.2,2.6
	c1.5,0,2.8-0.3,4.1-1c1.3-0.7,2.3-1.6,3.1-2.8v3.5h2.4V18.3h-2.4v19c-0.8-1.2-1.9-2.1-3.1-2.7c-1.2-0.6-2.6-0.9-4.1-0.9
	c-2.4,0-4.5,0.8-6.2,2.5s-2.6,3.7-2.6,6.2C58.9,44.7,59.8,46.7,61.5,48.4L61.5,48.4z"/>
<path class="st1" d="M92.8,46c0,1.7-0.7,3-2.2,3.9c-1.4,0.9-3.3,1.4-5.5,1.4V49c1.5,0,2.7-0.3,3.7-0.8s1.6-1.2,1.6-2.2
	c0-0.6-0.2-1.2-0.7-1.8c-0.2-0.3-0.8-0.8-1.6-1.6c-1.2-1.1-2-1.9-2.3-2.5s-0.5-1.2-0.5-2c0-1.4,0.5-2.4,1.4-3.1
	c0.9-0.7,2.1-1.1,3.7-1.2V36c-0.9,0.2-1.6,0.4-2,0.7s-0.6,0.8-0.6,1.4c0,0.6,0.4,1.3,1.1,1.9c0.1,0.1,0.5,0.5,1.3,1.1
	c1.1,1,1.8,1.8,2.2,2.6C92.6,44.4,92.8,45.2,92.8,46L92.8,46z"/>
<path class="st2" d="M21.1,44.6c0,0,0.8,0.5,2.7,0.3c0,0,3.3-0.2,5.6-2.2c0,0,3.4-2.4,3.8-6.8c0,0-0.1-2.1,1.1-2.6
	c0,0,1.2-0.5,1.2,0c0,0,0.1,0.3-0.2,0.4c0,0-0.3,0.2,0,0.3c0,0,0.7,0.1,0.9-0.5c0,0,0.2-0.4,0.1-0.6c0,0-0.1-0.3,0.3-0.3
	c0,0,10.1-0.9,14.4-1.6c14.1-2.5,18.2-0.8,18.2-0.8c0.2,0,0.1-0.2,0.1-0.2c-5.3-5-11.7-4.1-11.7-4.1s-1.8,0-9.8,2.3l-13.3,3.6
	c0,0-1,0.3-0.7-0.1c0,0,0.2-1.4,2.8-5c0,0,9.2-11.9,8.1-16.5c0,0,0.1-2-1.6-4.2c0,0-0.1-0.3-0.3,0c0,0-3.5,4-6.4,12.4
	c0,0-2.4,7.1-3.9,10.8c-0.2-0.2-0.4-0.4-0.9-0.4c0,0-1.5-0.3-1.5,1.2c0,0.5,0.1,0.4,0.1,0.4s0,0,0.1-0.1c0.1-0.2,0.5-0.8,0.9-0.5
	c0.5,0.3,0.3,0.8,0.3,0.8s-0.1,0.4-0.7,0.9c-0.2,0-0.4,0.1-0.7,0c0,0-5.3,0.8-8.3,4.9C21.8,36.4,19,40.5,21.1,44.6"/>
<path class="st3" d="M110.9,17.9v13h-2.5l-4-6.1c-0.9-1.4-1.9-3-2.6-4.4l0,0c0.2,1.6,0.2,3.3,0.2,5.6v4.9h-2.3v-13h2.6l4,6
	c1.1,1.4,1.9,3,2.5,4.2l0,0c-0.2-1.8-0.2-3.5-0.2-5.4v-4.7L110.9,17.9L110.9,17.9z"/>
<path class="st3" d="M116.4,30.8V18c0.9-0.2,2.1-0.2,3.9-0.2c1.9,0,3.3,0.4,4.2,1.1c0.9,0.7,1.4,1.6,1.4,2.8c0,3.2-3,4.2-5.8,4.2
	c-0.5,0-0.9,0-1.2-0.2v5.1L116.4,30.8L116.4,30.8z M118.6,24.2c0.4,0.2,0.7,0.2,1.2,0.2c2.1,0,3.5-0.9,3.5-2.6
	c0-1.6-1.2-2.5-3.2-2.5c-0.7,0-1.2,0-1.6,0.2C118.6,19.4,118.6,24.2,118.6,24.2z"/>
<path class="st3" d="M142.7,24.3c0,4.6-3,6.8-6.7,6.8c-3.9,0-6.5-2.6-6.5-6.7c0-3.9,2.8-6.7,6.7-6.7C140,17.7,142.7,20.5,142.7,24.3
	z M132,24.3c0,2.6,1.4,5.1,4,5.1c2.6,0,4.2-2.3,4.2-5.1c0-2.5-1.2-5.1-4-5.1C133.2,19.3,131.8,21.9,132,24.3L132,24.3z"/>
<path class="st3" d="M143.9,31c0.9-1.4,2.3-3.2,3.2-5.1c0.7,0.4,1.1,0.5,1.8,0.9c-0.7,1.2-2.3,3.9-3,5.1L143.9,31z M146.9,24
	c-0.9-0.5-1.6-0.9-2.6-1.4l0.9-1.2c1.1,0.5,1.9,0.9,2.8,1.4L146.9,24z M147.7,20c-0.7-0.5-1.6-1.1-2.6-1.8l1.1-1.2
	c1.1,0.5,1.9,1.2,2.8,1.8L147.7,20z M154.6,16.8h1.9v2.8h4.9V21h-4.9v2.5h6v1.4H156c-0.5,1.1-1.4,3-2.5,4.7c1.6,0,3.5-0.2,5.1-0.5
	c-0.4-0.7-1.1-1.4-1.9-2.3l1.6-0.7c2.5,2.8,3,3.7,4,5.3l-1.8,0.9c-0.4-0.5-0.5-1.1-1.1-1.6c-3.3,0.4-5.8,0.7-10.5,1.1l-0.5-1.8
	c1.1,0,2.3-0.2,3-0.2c1.1-2.1,1.2-2.6,2.1-4.7h-4.9v-1.4h5.8v-2.5H150v-1.4h4.4L154.6,16.8L154.6,16.8z"/>
<path class="st3" d="M174.8,17.2c0,1.1,0,2.3-0.2,3.3c0,0.4,1.1,4.2,3.5,6.7c0.9,0.9,2.5,2.1,5.3,3.3c-0.5,0.4-1.1,0.9-1.2,1.6
	c-4.4-2.1-6.1-4.2-7.9-7.9c-1.2,3.5-4.2,6.1-7.9,8.1c-0.4-0.5-0.7-1.1-1.2-1.4c8.1-3.7,8.1-8.4,8.1-13.5h1.6V17.2z"/>
<path class="st3" d="M100.6,41.9c1.4,0.4,2.8,0.9,4.2,1.6l-1.1,1.4c-1.1-0.5-2.1-1.1-4-1.6L100.6,41.9z M100.8,49.6
	c6.7-1.8,11-4.7,14.2-8.1c0.4,0.5,0.9,1.1,1.2,1.2c-3.2,3.3-7.4,6-12.1,7.7c-0.5,0.2-1.2,0.4-2.5,0.9L100.8,49.6L100.8,49.6z
	 M103,37.5c1.1,0.5,2.5,0.9,4.2,1.9l-1.1,1.4c-2.6-1.4-2.8-1.4-4-1.9L103,37.5z"/>
<path class="st3" d="M116.4,43.3h16.1V45h-16.1V43.3z"/>
<path class="st3" d="M145.5,39.1h0.2l1.2,1.1c-0.4,0.4-1.4,1.9-1.6,2.3c-0.9,1.2-1.4,1.8-1.9,2.5c0.7,0.5,1.1,0.9,1.4,1.2
	c1.8,1.4,3.2,2.6,4.7,4.4l-1.8,1.1c-0.7-0.9-1.1-1.2-2.5-2.8c-0.7-0.7-1.1-1.1-3.2-2.8c-3.2,2.8-6,4.4-8.2,5.4
	c-0.4-0.5-0.9-1.1-1.4-1.4c4.9-1.9,8.6-4.4,11.9-9.5h-9.8v-1.4H145.5L145.5,39.1z M147,37.7c0.9,0.5,1.6,1.2,2.3,1.8l-1.1,0.9
	c-0.7-0.5-1.4-1.2-2.1-1.6L147,37.7z M149.9,38.7c-0.5-0.5-1.4-1.1-2.1-1.6l1.1-0.9c0.9,0.5,1.6,1.1,2.3,1.6L149.9,38.7L149.9,38.7z
	"/>
<path class="st3" d="M165.5,41.2c-0.9,0.7-1.2,1.1-1.6,1.2c-0.5,0.5-0.9,0.7-3.2,2.3V52h-2.1v-6.1c-2.5,1.4-4.9,2.3-6.8,2.8
	c-0.2-0.5-0.5-1.1-1.1-1.4c4.9-1.4,7.9-3,11.4-5.6h-9.3v-1.4h11.4l0.4-0.2L165.5,41.2L165.5,41.2z M160.2,39.8
	c-1.8-1.2-1.9-1.4-3.7-2.3l1.2-1.2c1.4,0.7,2.6,1.4,3.9,2.3L160.2,39.8z M162.7,44.2c3.3,1.6,4.7,2.5,5.8,3l-1.2,1.6
	c-1.4-0.9-2.8-1.8-5.6-3.3L162.7,44.2z"/>
<path class="st3" d="M172.7,45.9c-1.1-1.9-1.2-2.1-1.9-3.2l1.6-0.7c0.9,1.2,1.2,1.8,2.1,3.2L172.7,45.9L172.7,45.9z M183.9,42.2
	c-1.6,4.4-3.2,7.9-10.3,10.2c-0.2-0.5-0.5-1.1-0.9-1.4c4.6-1.1,7.5-2.6,9.5-9.3L183.9,42.2L183.9,42.2z M176.5,45
	c-0.5-1.4-1.1-1.9-1.8-3.2l1.6-0.5c0.9,1.4,1.1,1.9,1.8,3.2L176.5,45z"/>
<path class="st3" d="M188.1,37.1h2.1v4.7c3.2,0.9,4.7,1.4,8.8,3.2l-1.2,1.6c-2.6-1.4-4.6-2.1-7.5-3v8.1h-2.1V37.1L188.1,37.1z"/>
<path class="st3" d="M213.2,38.5c-0.2,3-0.4,5.4-2.3,8.1c-2.3,3.2-6,4.4-7.7,5.1c-0.4-0.5-0.7-1.2-1.2-1.6c3.2-0.9,5.6-2.3,7.2-4.4
	c1.6-2.1,1.6-4.2,1.8-5.6h-9.5V45h-2.1v-6.3h13.9V38.5z"/>
<path class="st3" d="M214.4,43.3h16.1V45h-16.1V43.3z"/>
<path class="st3" d="M239.5,37.8c-0.4,0.7-0.9,1.4-1.2,2.1h6l0.4-0.2l1.2,1.1c-0.4,0.5-1.2,2.6-1.6,3c-3,5.4-8.6,6.8-11,7.4
	c-0.2-0.5-0.7-1.1-1.2-1.6c7.4-1.6,9.6-4.7,11.2-8.6h-6c-0.9,1.2-2.1,2.8-4.9,4.7c-0.4-0.5-0.9-0.9-1.4-1.2c1.9-1.2,4.4-3,6.5-7.7
	L239.5,37.8L239.5,37.8z"/>
</svg>
