<?xml version="1.0" encoding="utf-8"?>
<!-- Generator: Adobe Illustrator 27.4.0, SVG Export Plug-In . SVG Version: 6.00 Build 0)  -->
<svg version="1.1" id="レイヤー_1" xmlns="http://www.w3.org/2000/svg" xmlns:xlink="http://www.w3.org/1999/xlink" x="0px"
	 y="0px" viewBox="0 0 183 52.4" style="enable-background:new 0 0 183 52.4;" xml:space="preserve">
<style type="text/css">
	.st0{fill-rule:evenodd;clip-rule:evenodd;fill:#7BA02C;stroke:#7BA02C;stroke-width:1.14;}
	.st1{fill:#7BA02C;stroke:#7BA02C;stroke-width:1.14;}
	.st2{fill-rule:evenodd;clip-rule:evenodd;fill:#FCC800;}
	.st3{fill:#7BA02C;stroke:#7BA02C;stroke-width:0.1684;}
</style>
<path class="st0" d="M28.2,0.8c0,0,4.7,5.2,4.2,18.5l-0.4,9.5c0,0-0.2,1.9-0.3,2.5c0,0-0.8,0.2-2,0.6l3,2.9c0,0-1.7-1.2,10.3-6.2
	c0,0,10.5-4.6,13.9-7.6c0,0,3.2-2.5,5.3-5.3c0,0,0.5-0.4-0.1-0.4c0,0-8,1-15.6,5.8c0,0-8.6,5.4-12.6,9.2c0,0,2.1-10.5,2.2-14.7
	c0,0,2.1-10.2-6.9-14.9C29.2,0.9,28,0.4,28.2,0.8L28.2,0.8z"/>
<path class="st1" d="M12.3,41.6c0,2.9-1.2,5.2-3.6,6.9c-2.1,1.5-4.8,2.4-8.1,2.7v-2.6c2.8-0.3,4.9-1,6.5-2.1
	c1.7-1.3,2.6-2.9,2.6-4.9c0-1.4-0.3-2.6-0.9-3.5c-0.6-1-1.6-1.9-2.9-2.9c-1.9-1.3-3.2-2.5-3.9-3.7C1.3,30.4,1,29.1,1,27.9
	c0-2.6,0.7-4.6,2.2-6c1.4-1.4,3.4-2.2,5.8-2.2v2.6c-1.8,0.2-3.1,0.7-4,1.6c-0.9,0.9-1.3,2.2-1.3,4c0,1.2,0.4,2.2,1.1,3.1
	c0.5,0.6,1.6,1.5,3.2,2.7c1.4,1.1,2.5,2.2,3.3,3.4C11.9,38.3,12.3,39.8,12.3,41.6z"/>
<path class="st1" d="M31.2,36.3l-8.9,6.1c0-1.9,0.6-3.5,1.9-4.6c1.3-1.2,2.8-1.7,4.5-1.7C29.5,36,30.3,36.1,31.2,36.3L31.2,36.3z
	 M22.1,36.4c-1.5,1.6-2.2,3.7-2.2,6.1c0,2.1,0.7,4,2,5.6c1.3,1.6,3.2,2.6,5.6,2.9v-2.3c-2.1-0.3-3.7-1.6-4.7-3.9l8.4-5.7l1.5-2.6
	c-0.8-0.8,1-1.7-0.1-2.1c-1.1-0.4-2.4-0.7-3.8-0.7C25.9,33.7,23.7,34.6,22.1,36.4L22.1,36.4z"/>
<path class="st1" d="M51.5,36.3l-8.9,6.1c0-1.9,0.6-3.5,1.9-4.6c1.3-1.2,2.8-1.7,4.5-1.7C49.8,36,50.6,36.1,51.5,36.3z M42.4,36.4
	C41,38,40.2,40,40.2,42.5c0,2.1,0.7,4,2,5.6c1.3,1.6,3.2,2.6,5.6,2.9v-2.3c-2.1-0.3-3.7-1.6-4.7-3.9l12.6-8.6
	c-0.8-0.8-1.7-1.5-2.8-1.9c-1.1-0.4-2.4-0.7-3.8-0.7C46.2,33.7,44,34.6,42.4,36.4L42.4,36.4z"/>
<path class="st1" d="M63.2,46.8c-1.3-1.3-1.9-2.8-1.9-4.5c0-1.8,0.6-3.2,1.9-4.5c1.3-1.3,2.8-1.9,4.6-1.9c1.7,0,3.3,0.6,4.6,1.9
	c1.3,1.3,1.9,2.8,1.9,4.5s-0.6,3.2-1.9,4.5c-1.3,1.3-2.8,1.9-4.6,1.9C66,48.7,64.4,48.1,63.2,46.8z M61.5,48.4
	c1.7,1.7,3.8,2.6,6.2,2.6c1.5,0,2.8-0.3,4.1-1c1.3-0.7,2.3-1.6,3.1-2.8v3.5h2.4V18.3h-2.4v19c-0.8-1.2-1.9-2.1-3.1-2.7
	c-1.2-0.6-2.6-0.9-4.1-0.9c-2.4,0-4.5,0.8-6.2,2.5c-1.7,1.7-2.6,3.7-2.6,6.2C58.9,44.7,59.8,46.7,61.5,48.4L61.5,48.4z"/>
<path class="st1" d="M92.8,46c0,1.7-0.7,3-2.2,3.9c-1.4,0.9-3.3,1.4-5.5,1.4v-2.3c1.5,0,2.7-0.3,3.7-0.8c1-0.5,1.6-1.2,1.6-2.2
	c0-0.6-0.2-1.2-0.7-1.8c-0.2-0.3-0.8-0.8-1.6-1.6c-1.2-1.1-2-1.9-2.3-2.5c-0.3-0.6-0.5-1.2-0.5-2c0-1.4,0.5-2.4,1.4-3.1
	c0.9-0.7,2.1-1.1,3.7-1.2V36c-0.9,0.2-1.6,0.4-2,0.7c-0.4,0.3-0.6,0.8-0.6,1.4c0,0.6,0.4,1.3,1.1,1.9c0.1,0.1,0.5,0.5,1.3,1.1
	c1.1,1,1.8,1.8,2.2,2.6C92.6,44.4,92.8,45.2,92.8,46L92.8,46z"/>
<path class="st2" d="M21.1,44.6c0,0,0.8,0.5,2.7,0.3c0,0,3.3-0.2,5.6-2.2c0,0,3.4-2.4,3.8-6.8c0,0-0.1-2.1,1.1-2.6
	c0,0,1.2-0.5,1.2,0c0,0,0.1,0.3-0.2,0.4c0,0-0.3,0.2,0,0.3c0,0,0.7,0.1,0.9-0.5c0,0,0.2-0.4,0.1-0.6c0,0-0.1-0.3,0.3-0.3
	c0,0,10.1-0.9,14.4-1.6c14.1-2.5,18.2-0.8,18.2-0.8c0.2,0,0.1-0.2,0.1-0.2C64,25,57.6,25.9,57.6,25.9s-1.8,0-9.8,2.3l-13.3,3.6
	c0,0-1,0.3-0.7-0.1c0,0,0.2-1.4,2.8-5c0,0,9.2-11.9,8.1-16.5c0,0,0.1-2-1.6-4.2c0,0-0.1-0.3-0.3,0c0,0-3.5,4-6.4,12.4
	c0,0-2.4,7.1-3.9,10.8c-0.2-0.2-0.4-0.4-0.9-0.4c0,0-1.5-0.3-1.5,1.2c0,0.5,0.1,0.4,0.1,0.4s0,0,0.1-0.1c0.1-0.2,0.5-0.8,0.9-0.5
	c0.5,0.3,0.3,0.8,0.3,0.8s-0.1,0.4-0.7,0.9c-0.2,0-0.4,0.1-0.7,0c0,0-5.3,0.8-8.3,4.9c0,0-2.8,4.1-0.6,8.3"/>
<path class="st3" d="M106.1,32.7v7.4h-1.4l-2.3-3.5c-0.5-0.8-1.1-1.7-1.5-2.5h0c0.1,0.9,0.1,1.9,0.1,3.2v2.8h-1.3v-7.4h1.5l2.3,3.4
	c0.6,0.8,1.1,1.7,1.4,2.4h0c-0.1-1-0.1-2-0.1-3.1v-2.7L106.1,32.7L106.1,32.7z"/>
<path class="st3" d="M109.2,40.1v-7.3c0.5-0.1,1.2-0.1,2.2-0.1c1.1,0,1.9,0.2,2.4,0.6c0.5,0.4,0.8,0.9,0.8,1.6
	c0,1.8-1.7,2.4-3.3,2.4c-0.3,0-0.5,0-0.7-0.1v2.9H109.2L109.2,40.1z M110.5,36.3c0.2,0.1,0.4,0.1,0.7,0.1c1.2,0,2-0.5,2-1.5
	c0-0.9-0.7-1.4-1.8-1.4c-0.4,0-0.7,0-0.9,0.1V36.3z"/>
<path class="st3" d="M124.2,36.4c0,2.6-1.7,3.9-3.8,3.9c-2.2,0-3.7-1.5-3.7-3.8c0-2.2,1.6-3.8,3.8-3.8
	C122.7,32.6,124.2,34.2,124.2,36.4z M118.1,36.4c0,1.5,0.8,2.9,2.3,2.9c1.5,0,2.4-1.3,2.4-2.9c0-1.4-0.7-2.9-2.3-2.9
	C118.8,33.5,118,35,118.1,36.4L118.1,36.4z"/>
<path class="st3" d="M124.9,40.2c0.5-0.8,1.3-1.8,1.8-2.9c0.4,0.2,0.6,0.3,1,0.5c-0.4,0.7-1.3,2.2-1.7,2.9L124.9,40.2z M126.6,36.2
	c-0.5-0.3-0.9-0.5-1.5-0.8l0.5-0.7c0.6,0.3,1.1,0.5,1.6,0.8L126.6,36.2z M127.1,33.9c-0.4-0.3-0.9-0.6-1.5-1l0.6-0.7
	c0.6,0.3,1.1,0.7,1.6,1L127.1,33.9z M131,32.1h1.1v1.6h2.8v0.8h-2.8v1.4h3.4v0.8h-3.7c-0.3,0.6-0.8,1.7-1.4,2.7c0.9,0,2-0.1,2.9-0.3
	c-0.2-0.4-0.6-0.8-1.1-1.3l0.9-0.4c1.4,1.6,1.7,2.1,2.3,3l-1,0.5c-0.2-0.3-0.3-0.6-0.6-0.9c-1.9,0.2-3.3,0.4-6,0.6l-0.3-1
	c0.6,0,1.3-0.1,1.7-0.1c0.6-1.2,0.7-1.5,1.2-2.7h-2.8v-0.8h3.3v-1.4h-2.5v-0.8h2.5L131,32.1L131,32.1z"/>
<path class="st3" d="M142.5,32.3c0,0.6,0,1.3-0.1,1.9c0,0.2,0.6,2.4,2,3.8c0.5,0.5,1.4,1.2,3,1.9c-0.3,0.2-0.6,0.5-0.7,0.9
	c-2.5-1.2-3.5-2.4-4.5-4.5c-0.7,2-2.4,3.5-4.5,4.6c-0.2-0.3-0.4-0.6-0.7-0.8c4.6-2.1,4.6-4.8,4.6-7.7H142.5L142.5,32.3z"/>
<path class="st3" d="M100.2,46.4c0.8,0.2,1.6,0.5,2.4,0.9l-0.6,0.8c-0.6-0.3-1.2-0.6-2.3-0.9L100.2,46.4z M100.3,50.8
	c3.8-1,6.3-2.7,8.1-4.6c0.2,0.3,0.5,0.6,0.7,0.7c-1.8,1.9-4.2,3.4-6.9,4.4c-0.3,0.1-0.7,0.2-1.4,0.5L100.3,50.8L100.3,50.8z
	 M101.6,43.9c0.6,0.3,1.4,0.5,2.4,1.1l-0.6,0.8c-1.5-0.8-1.6-0.8-2.3-1.1L101.6,43.9z"/>
<path class="st3" d="M109.2,47.2h9.2v1h-9.2V47.2z"/>
<path class="st3" d="M125.8,44.8l0.1,0l0.7,0.6c-0.2,0.2-0.8,1.1-0.9,1.3c-0.5,0.7-0.8,1-1.1,1.4c0.4,0.3,0.6,0.5,0.8,0.7
	c1,0.8,1.8,1.5,2.7,2.5l-1,0.6c-0.4-0.5-0.6-0.7-1.4-1.6c-0.4-0.4-0.6-0.6-1.8-1.6c-1.8,1.6-3.4,2.5-4.7,3.1
	c-0.2-0.3-0.5-0.6-0.8-0.8c2.8-1.1,4.9-2.5,6.8-5.4h-5.6v-0.8L125.8,44.8L125.8,44.8z M126.7,44c0.5,0.3,0.9,0.7,1.3,1l-0.6,0.5
	c-0.4-0.3-0.8-0.7-1.2-0.9L126.7,44z M128.3,44.6c-0.3-0.3-0.8-0.6-1.2-0.9l0.6-0.5c0.5,0.3,0.9,0.6,1.3,0.9L128.3,44.6L128.3,44.6z
	"/>
<path class="st3" d="M137.2,46c-0.5,0.4-0.7,0.6-0.9,0.7c-0.3,0.3-0.5,0.4-1.8,1.3v4.2h-1.2v-3.5c-1.4,0.8-2.8,1.3-3.9,1.6
	c-0.1-0.3-0.3-0.6-0.6-0.8c2.8-0.8,4.5-1.7,6.5-3.2H130v-0.8h6.5l0.2-0.1L137.2,46L137.2,46z M134.2,45.2c-1-0.7-1.1-0.8-2.1-1.3
	l0.7-0.7c0.8,0.4,1.5,0.8,2.2,1.3L134.2,45.2z M135.6,47.7c1.9,0.9,2.7,1.4,3.3,1.7l-0.7,0.9c-0.8-0.5-1.6-1-3.2-1.9L135.6,47.7z"/>
<path class="st3" d="M141.3,48.7c-0.6-1.1-0.7-1.2-1.1-1.8l0.9-0.4c0.5,0.7,0.7,1,1.2,1.8L141.3,48.7L141.3,48.7z M147.7,46.6
	c-0.9,2.5-1.8,4.5-5.9,5.8c-0.1-0.3-0.3-0.6-0.5-0.8c2.6-0.6,4.3-1.5,5.4-5.3L147.7,46.6L147.7,46.6z M143.5,48.2
	c-0.3-0.8-0.6-1.1-1-1.8l0.9-0.3c0.5,0.8,0.6,1.1,1,1.8L143.5,48.2z"/>
<path class="st3" d="M150.1,43.7h1.2v2.7c1.8,0.5,2.7,0.8,5,1.8l-0.7,0.9c-1.5-0.8-2.6-1.2-4.3-1.7V52h-1.2L150.1,43.7L150.1,43.7z"
	/>
<path class="st3" d="M164.4,44.5c-0.1,1.7-0.2,3.1-1.3,4.6c-1.3,1.8-3.4,2.5-4.4,2.9c-0.2-0.3-0.4-0.7-0.7-0.9
	c1.8-0.5,3.2-1.3,4.1-2.5c0.9-1.2,0.9-2.4,1-3.2h-5.4v2.8h-1.2v-3.6H164.4L164.4,44.5z"/>
<path class="st3" d="M165.1,47.2h9.2v1h-9.2V47.2z"/>
<path class="st3" d="M179.4,44.1c-0.2,0.4-0.5,0.8-0.7,1.2h3.4l0.2-0.1l0.7,0.6c-0.2,0.3-0.7,1.5-0.9,1.7c-1.7,3.1-4.9,3.9-6.3,4.2
	c-0.1-0.3-0.4-0.6-0.7-0.9c4.2-0.9,5.5-2.7,6.4-4.9h-3.4c-0.5,0.7-1.2,1.6-2.8,2.7c-0.2-0.3-0.5-0.5-0.8-0.7
	c1.1-0.7,2.5-1.7,3.7-4.4L179.4,44.1L179.4,44.1z"/>
</svg>
