<svg width="32" height="32" viewBox="0 0 32 32" fill="none" xmlns="http://www.w3.org/2000/svg">
<rect width="32" height="32" rx="2" fill="#55ACEE"/>
<path d="M27.11 9.94613C26.5154 10.8111 25.8261 11.5139 25.0423 12.0544V12.6221C25.0423 13.9735 24.7855 15.3453 24.2719 16.7373C23.7584 18.1293 23.0083 19.3862 22.0217 20.508C21.0351 21.6297 19.812 22.5487 18.3524 23.265C16.8928 23.9813 15.217 24.3394 13.3249 24.3394C12.1356 24.3394 11.0139 24.1772 9.95974 23.8529C8.90559 23.5285 7.91901 23.069 7 22.4744C7.16218 22.5014 7.32436 22.5217 7.48653 22.5352C7.64871 22.5487 7.81089 22.5554 7.97307 22.5554C8.94613 22.5554 9.8719 22.3933 10.7504 22.0689C11.6288 21.7446 12.4194 21.3121 13.1222 20.7715C12.2032 20.7445 11.3991 20.4674 10.7098 19.9403C10.0206 19.4133 9.54078 18.7308 9.27049 17.8928C9.40564 17.9469 9.53403 17.9739 9.65566 17.9739H10.0408C10.4192 17.9739 10.7706 17.9334 11.095 17.8523C10.149 17.6361 9.36509 17.1563 8.74341 16.413C8.12173 15.6697 7.81089 14.7979 7.81089 13.7979V13.7573C8.10821 13.8925 8.40554 14.0073 8.70287 14.1019C9.00019 14.1965 9.32455 14.2438 9.67593 14.2438C9.13534 13.8654 8.69611 13.3789 8.35824 12.7842C8.02037 12.1896 7.85143 11.5409 7.85143 10.8381C7.85143 10.0813 8.04064 9.39203 8.41905 8.77034C9.44618 10.0137 10.6895 11.0206 12.1491 11.7909C13.6087 12.5612 15.19 12.987 16.8928 13.0681C16.8118 12.7437 16.7712 12.4329 16.7712 12.1355C16.7712 11.5679 16.8793 11.0341 17.0956 10.534C17.3118 10.034 17.6091 9.59475 17.9875 9.21633C18.366 8.83792 18.8052 8.54059 19.3052 8.32436C19.8053 8.10812 20.3391 8 20.9067 8C21.5014 8 22.0555 8.11488 22.5691 8.34463C23.0826 8.57438 23.5286 8.89198 23.907 9.29742C24.3936 9.21633 24.8531 9.08794 25.2855 8.91225C25.718 8.73656 26.137 8.52708 26.5424 8.28381C26.2181 9.28391 25.6099 10.0543 24.7179 10.5948C25.5829 10.4597 26.3802 10.2435 27.11 9.94613Z" fill="white"/>
</svg>
